# xmcd
#
# Track frame offsets: 
#        150
#        13092
#        23392
#        36857
#        51568
#        61638
#        74660
#        88093
#        99740
#        110660
#        123927
#        139436
#        150872
#        164994
#        178063
#
# Disc length: 2539 seconds
#
# Revision: 0
# Processed by: cddbd v1.5.2PL0 Copyright (c) Steve Scherf et al.
# Submitted via: ExactAudioCopy v1.3
#
DISCID=d309e90f
DTITLE=Various Artist - Simpy Country - CD3
DYEAR=2012
DGENRE=Country
TTITLE0=Patsy Cline - I Fall To Pieces
TTITLE1=Dolly Parton - Release Me
TTITLE2=Patti Page - Tennessee Waltz
TTITLE3=Lynn Anderson - Gone At Last
TTITLE4=Rita Remington - Would You Lay With Me (In A Field Of Stone)
TTITLE5=Billie Jo Spears - He's On The Run Again
TTITLE6=Kitty Wells - I Don't Claim To Be An Angel
TTITLE7=Jeannie C. Riley - Before The Next Teardrop Falls
TTITLE8=Loretta Lynn - Crazy (Live)
TTITLE9=The Carter Family - Are You Tired Of Me, My Darling?
TTITLE10=Anne Murray - There Goes My Everything
TTITLE11=Kitty Wells - It Wasn't God Who Made Honky Tonk Angels
TTITLE12=Patsy Montana - I Want To Be A Cowboy's Sweatheart
TTITLE13=Donna Fargo - Daddy
TTITLE14=Hank Williams - Move It On Over
EXTD=
EXTT0=
EXTT1=
EXTT2=
EXTT3=
EXTT4=
EXTT5=
EXTT6=
EXTT7=
EXTT8=
EXTT9=
EXTT10=
EXTT11=
EXTT12=
EXTT13=
EXTT14=
PLAYORDER=
